<?xml version="1.0" encoding="UTF-8" standalone="no"?>
<!DOCTYPE svg PUBLIC "-//W3C//DTD SVG 1.1//EN"
 "http://www.w3.org/Graphics/SVG/1.1/DTD/svg11.dtd">
<!-- Generated by graphviz version 2.26.3 (20100126.1600)
 -->
<!-- Title: _anonymous_0 Pages: 1 -->
<svg width="134pt" height="308pt"
 viewBox="0.00 0.00 134.00 308.00" xmlns="http://www.w3.org/2000/svg" xmlns:xlink="http://www.w3.org/1999/xlink">
<g id="graph1" class="graph" transform="scale(1 1) rotate(0) translate(4 304)">
<title>_anonymous_0</title>
<polygon fill="white" stroke="white" points="-4,5 -4,-304 131,-304 131,5 -4,5"/>
<!-- 2 -->
<g id="node1" class="node"><title>2</title>
<ellipse fill="none" stroke="black" cx="27" cy="-194" rx="27" ry="18"/>
<text text-anchor="middle" x="27" y="-188.9" font-family="Times Roman,serif" font-size="14.00">2</text>
</g>
<!-- 3 -->
<g id="node3" class="node"><title>3</title>
<ellipse fill="none" stroke="black" cx="36" cy="-106" rx="27" ry="18"/>
<text text-anchor="middle" x="36" y="-100.9" font-family="Times Roman,serif" font-size="14.00">3</text>
</g>
<!-- 2&#45;&gt;3 -->
<g id="edge2" class="edge"><title>2&#45;&gt;3</title>
<path fill="none" stroke="black" d="M27.5761,-175.67C28.0108,-165.692 28.7536,-153.144 30,-142 30.2897,-139.41 30.6411,-136.724 31.027,-134.038"/>
<polygon fill="black" stroke="black" points="34.5264,-134.316 32.6282,-123.892 27.612,-133.224 34.5264,-134.316"/>
<text text-anchor="middle" x="38" y="-144.9" font-family="Times Roman,serif" font-size="14.00">c 1</text>
</g>
<!-- 5 -->
<g id="node5" class="node"><title>5</title>
<ellipse fill="none" stroke="black" cx="76" cy="-18" rx="27" ry="18"/>
<text text-anchor="middle" x="76" y="-12.9" font-family="Times Roman,serif" font-size="14.00">5</text>
</g>
<!-- 3&#45;&gt;5 -->
<g id="edge4" class="edge"><title>3&#45;&gt;5</title>
<path fill="none" stroke="black" d="M43.9027,-88.614C49.6004,-76.0791 57.3963,-58.9282 63.8781,-44.6681"/>
<polygon fill="black" stroke="black" points="67.1619,-45.9019 68.1137,-35.3499 60.7893,-43.0052 67.1619,-45.9019"/>
<text text-anchor="middle" x="66.5" y="-56.9" font-family="Times Roman,serif" font-size="14.00">t 2</text>
</g>
<!-- 1 -->
<g id="node6" class="node"><title>1</title>
<ellipse fill="none" stroke="black" cx="99" cy="-194" rx="27" ry="18"/>
<text text-anchor="middle" x="99" y="-188.9" font-family="Times Roman,serif" font-size="14.00">1</text>
</g>
<!-- 1&#45;&gt;3 -->
<g id="edge10" class="edge"><title>1&#45;&gt;3</title>
<path fill="none" stroke="black" d="M85.6604,-178.137C80.6143,-171.958 74.9079,-164.751 70,-158 63.7864,-149.453 57.3492,-139.832 51.7695,-131.211"/>
<polygon fill="black" stroke="black" points="54.6473,-129.214 46.3107,-122.676 48.7502,-132.986 54.6473,-129.214"/>
<text text-anchor="middle" x="77.5" y="-144.9" font-family="Times Roman,serif" font-size="14.00">t 5</text>
</g>
<!-- 1&#45;&gt;5 -->
<g id="edge6" class="edge"><title>1&#45;&gt;5</title>
<path fill="none" stroke="black" d="M96.6252,-175.828C92.6034,-145.052 84.4258,-82.4759 79.6647,-46.0426"/>
<polygon fill="black" stroke="black" points="83.1282,-45.5355 78.3619,-36.0733 76.1873,-46.4426 83.1282,-45.5355"/>
<text text-anchor="middle" x="96.5" y="-100.9" font-family="Times Roman,serif" font-size="14.00">f 3</text>
</g>
<!-- 4 -->
<g id="node8" class="node"><title>4</title>
<ellipse fill="none" stroke="black" cx="67" cy="-282" rx="27" ry="18"/>
<text text-anchor="middle" x="67" y="-276.9" font-family="Times Roman,serif" font-size="14.00">4</text>
</g>
<!-- 4&#45;&gt;2 -->
<g id="edge12" class="edge"><title>4&#45;&gt;2</title>
<path fill="none" stroke="black" d="M59.0973,-264.614C53.3996,-252.079 45.6037,-234.928 39.1219,-220.668"/>
<polygon fill="black" stroke="black" points="42.2107,-219.005 34.8863,-211.35 35.8381,-221.902 42.2107,-219.005"/>
<text text-anchor="middle" x="57.5" y="-232.9" font-family="Times Roman,serif" font-size="14.00">t 6</text>
</g>
<!-- 4&#45;&gt;1 -->
<g id="edge8" class="edge"><title>4&#45;&gt;1</title>
<path fill="none" stroke="black" d="M73.4757,-264.192C77.9432,-251.906 83.9683,-235.337 89.0428,-221.382"/>
<polygon fill="black" stroke="black" points="92.4057,-222.376 92.534,-211.782 85.8272,-219.983 92.4057,-222.376"/>
<text text-anchor="middle" x="92.5" y="-232.9" font-family="Times Roman,serif" font-size="14.00">t 4</text>
</g>
</g>
</svg>
