<?xml version="1.0" encoding="UTF-8" standalone="no"?>
<!DOCTYPE svg PUBLIC "-//W3C//DTD SVG 1.1//EN"
 "http://www.w3.org/Graphics/SVG/1.1/DTD/svg11.dtd">
<!-- Generated by graphviz version 2.26.3 (20100126.1600)
 -->
<!-- Title: _anonymous_0 Pages: 1 -->
<svg width="134pt" height="396pt"
 viewBox="0.00 0.00 134.00 396.00" xmlns="http://www.w3.org/2000/svg" xmlns:xlink="http://www.w3.org/1999/xlink">
<g id="graph1" class="graph" transform="scale(1 1) rotate(0) translate(4 392)">
<title>_anonymous_0</title>
<polygon fill="white" stroke="white" points="-4,5 -4,-392 131,-392 131,5 -4,5"/>
<!-- 1 -->
<g id="node1" class="node"><title>1</title>
<ellipse fill="none" stroke="black" cx="99" cy="-370" rx="27" ry="18"/>
<text text-anchor="middle" x="99" y="-364.9" font-family="Times Roman,serif" font-size="14.00">1</text>
</g>
<!-- 2 -->
<g id="node3" class="node"><title>2</title>
<ellipse fill="none" stroke="black" cx="60" cy="-282" rx="27" ry="18"/>
<text text-anchor="middle" x="60" y="-276.9" font-family="Times Roman,serif" font-size="14.00">2</text>
</g>
<!-- 1&#45;&gt;2 -->
<g id="edge2" class="edge"><title>1&#45;&gt;2</title>
<path fill="none" stroke="black" d="M91.2949,-352.614C85.7396,-340.079 78.1386,-322.928 71.8188,-308.668"/>
<polygon fill="black" stroke="black" points="74.9408,-307.074 67.6891,-299.35 68.5411,-309.91 74.9408,-307.074"/>
<text text-anchor="middle" x="90.5" y="-320.9" font-family="Times Roman,serif" font-size="14.00">t 1</text>
</g>
<!-- 3 -->
<g id="node5" class="node"><title>3</title>
<ellipse fill="none" stroke="black" cx="60" cy="-106" rx="27" ry="18"/>
<text text-anchor="middle" x="60" y="-100.9" font-family="Times Roman,serif" font-size="14.00">3</text>
</g>
<!-- 1&#45;&gt;3 -->
<g id="edge4" class="edge"><title>1&#45;&gt;3</title>
<path fill="none" stroke="black" d="M101.324,-352.016C105.234,-317.364 111.297,-239.186 96,-176 92.1706,-160.182 84.113,-143.932 76.59,-131.075"/>
<polygon fill="black" stroke="black" points="79.4725,-129.08 71.2747,-122.368 73.4977,-132.727 79.4725,-129.08"/>
<text text-anchor="middle" x="112.5" y="-232.9" font-family="Times Roman,serif" font-size="14.00">t 2</text>
</g>
<!-- 4 -->
<g id="node7" class="node"><title>4</title>
<ellipse fill="none" stroke="black" cx="60" cy="-194" rx="27" ry="18"/>
<text text-anchor="middle" x="60" y="-188.9" font-family="Times Roman,serif" font-size="14.00">4</text>
</g>
<!-- 2&#45;&gt;4 -->
<g id="edge6" class="edge"><title>2&#45;&gt;4</title>
<path fill="none" stroke="black" d="M60,-263.766C60,-251.849 60,-236.038 60,-222.482"/>
<polygon fill="black" stroke="black" points="63.5001,-222.21 60,-212.21 56.5001,-222.21 63.5001,-222.21"/>
<text text-anchor="middle" x="67.5" y="-232.9" font-family="Times Roman,serif" font-size="14.00">t 3</text>
</g>
<!-- 5 -->
<g id="node9" class="node"><title>5</title>
<ellipse fill="none" stroke="black" cx="27" cy="-18" rx="27" ry="18"/>
<text text-anchor="middle" x="27" y="-12.9" font-family="Times Roman,serif" font-size="14.00">5</text>
</g>
<!-- 3&#45;&gt;5 -->
<g id="edge8" class="edge"><title>3&#45;&gt;5</title>
<path fill="none" stroke="black" d="M53.322,-88.1919C48.6845,-75.8254 42.4196,-59.119 37.1652,-45.1072"/>
<polygon fill="black" stroke="black" points="40.3439,-43.6157 33.5555,-35.4813 33.7896,-46.0736 40.3439,-43.6157"/>
<text text-anchor="middle" x="54.5" y="-56.9" font-family="Times Roman,serif" font-size="14.00">t 4</text>
</g>
<!-- 4&#45;&gt;3 -->
<g id="edge10" class="edge"><title>4&#45;&gt;3</title>
<path fill="none" stroke="black" d="M60,-175.766C60,-163.849 60,-148.038 60,-134.482"/>
<polygon fill="black" stroke="black" points="63.5001,-134.21 60,-124.21 56.5001,-134.21 63.5001,-134.21"/>
<text text-anchor="middle" x="68" y="-144.9" font-family="Times Roman,serif" font-size="14.00">c 5</text>
</g>
<!-- 5&#45;&gt;2 -->
<g id="edge12" class="edge"><title>5&#45;&gt;2</title>
<path fill="none" stroke="black" d="M23.7653,-35.9843C18.1767,-70.6358 8.70423,-148.814 24,-212 27.8292,-227.818 35.8867,-244.068 43.4098,-256.925"/>
<polygon fill="black" stroke="black" points="40.5274,-258.921 48.7252,-265.632 46.5021,-255.273 40.5274,-258.921"/>
<text text-anchor="middle" x="25" y="-144.9" font-family="Times Roman,serif" font-size="14.00">c 6</text>
</g>
</g>
</svg>
